<?xml version="1.0" encoding="utf-8"?>
<!-- Generator: Adobe Illustrator 25.0.0, SVG Export Plug-In . SVG Version: 6.00 Build 0)  -->
<svg version="1.1" id="Layer_1" xmlns="http://www.w3.org/2000/svg" xmlns:xlink="http://www.w3.org/1999/xlink" x="0px" y="0px"
	 viewBox="0 0 720 629" style="enable-background:new 0 0 720 629;" xml:space="preserve">
<style type="text/css">
	.st0{fill-rule:evenodd;clip-rule:evenodd;fill:#D3E4F8;}
</style>
<path class="st0" d="M426.8-247.3c99.3,4.7,203.7,41.6,264.3,118.4c56,71,18.4,171.8,34.4,260.1c12.9,70.9,60.9,133.8,50,205.1
	c-12.1,78.9-50.6,154.2-112.9,206c-65.3,54.2-151.7,99.7-235.8,83.5c-81.5-15.7-106.9-118.8-176.5-163
	c-76.2-48.3-209-21.9-243.8-103.7c-34.1-80.2,77.5-150.7,99.9-234.7C131.1,31.1,79.6-81.4,143.1-155
	C208.9-231.2,324.7-252.2,426.8-247.3z"/>
</svg>
